<svg width="512" height="512" viewBox="0 0 512 512" fill="none" xmlns="http://www.w3.org/2000/svg">
<path d="M182.771 505.813C150.694 491.641 128.898 461.111 126.039 426.143C127.914 390.176 146.913 357.302 177.084 337.693C172.131 349.77 173.334 363.52 180.209 374.567C188.037 385.504 201.505 390.754 214.692 388.019C233.473 382.738 244.472 363.239 239.191 344.443C237.316 337.865 233.567 331.896 228.442 327.396C207.192 310.115 196.521 282.96 200.318 255.82C203.958 241.446 211.911 228.446 223.145 218.634C214.708 241.133 238.504 263.336 254.472 274.257C282.815 291.257 310.095 309.944 336.22 330.209C364.766 352.708 380.328 387.926 377.89 423.956C371.469 462.298 344.344 493.954 307.377 505.828C381.328 489.376 457.575 430.627 459.028 347.302C457.575 280.632 417.78 220.806 356.953 193.557H354.25C355.594 196.822 356.25 200.338 356.125 203.884C356.328 201.588 356.328 199.306 356.125 197.01C356.453 199.713 356.453 202.431 356.125 205.134C351.5 224.087 332.376 235.758 313.377 231.134C305.783 229.259 299.002 224.993 294.127 218.837C269.753 187.588 294.127 152.027 298.205 117.653C300.705 73.701 280.628 31.6867 245.004 6C262.831 35.7178 239.082 74.7479 221.817 96.9503C204.521 119.153 179.521 135.699 159.147 155.073C137.195 175.495 117.07 197.947 99.0083 221.946C59.9626 269.648 44.635 332.568 57.3377 392.879C74.759 451.002 123.07 494.672 182.646 506H182.974L182.771 505.813Z" fill="#DD4814"/>
</svg>
